<svg xmlns="http://www.w3.org/2000/svg" viewBox="0 0 410 404" width="64" height="64" role="img" aria-label="Vite">
  <path fill="#646CFF" d="M399.641 59.525c-1.941-7.859-7.402-14.13-14.812-16.846L264.326 0.163c-8.102-2.918-17.037-1.094-23.314 4.67L16.814 200.62c-7.32 6.44-10.191 16.68-7.281 25.779l42.5 133.48c2.828 8.867 10.281 15.303 19.516 16.74l163.28 25.84c8.781 1.375 17.5-2.176 22.73-9.277l137.58-186.87c4.8-6.52 6.41-14.92 4.5-22.79l-0.0-0.0Z" opacity="0.2"/>
  <path fill="#646CFF" d="M306.693 42.679 161.812 16.516a20.23 20.23 0 0 0-16.637 4.609L31.52 115.773a20.23 20.23 0 0 0-6.73 20.88l29.824 93.68a20.23 20.23 0 0 0 19.613 14.07l120.04-6.83a20.23 20.23 0 0 0 16.07-9.21l91.03-129.37a20.23 20.23 0 0 0 2.33-16.314Z"/>
  <path fill="#FFB300" d="M258.81 57.5 176.53 45.8a16 16 0 0 0-13.24 4.6l-63.65 58.2a16 16 0 0 0-4.67 15.2l15.43 49.2a16 16 0 0 0 15.63 11.3l70.9-4.8a16 16 0 0 0 12.9-7.3l53.2-76.4a16 16 0 0 0 1.71-13.3Z"/>
</svg>
